<?xml version="1.0" encoding="UTF-8"?>
<!DOCTYPE svg PUBLIC "-//W3C//DTD SVG 1.1//EN" "http://www.w3.org/Graphics/SVG/1.1/DTD/svg11.dtd">
<svg xmlns="http://www.w3.org/2000/svg" version="1.1" width="2560px" height="998px" style="shape-rendering:geometricPrecision; text-rendering:geometricPrecision; image-rendering:optimizeQuality; fill-rule:evenodd; clip-rule:evenodd" xmlns:xlink="http://www.w3.org/1999/xlink">
<g><path style="opacity:0.996" fill="#e70011" d="M 940.5,7.5 C 978.438,5.198 1011.1,17.0313 1038.5,43C 1072,76.1641 1091.5,116.331 1097,163.5C 1107.46,232.827 1099.13,299.827 1072,364.5C 1047.83,420.746 1017,472.746 979.5,520.5C 1000.88,540.569 1026.21,548.736 1055.5,545C 1072.02,541.74 1086.68,534.74 1099.5,524C 1118.11,507.075 1133.27,487.575 1145,465.5C 1153.76,449.312 1161.43,432.645 1168,415.5C 1174.67,396.145 1181.34,376.811 1188,357.5C 1206.69,331.783 1230.85,324.95 1260.5,337C 1279.29,347.822 1288.96,364.155 1289.5,386C 1288.82,394.516 1287.99,403.016 1287,411.5C 1283.15,432.086 1279.82,452.752 1277,473.5C 1276.33,483.833 1276.33,494.167 1277,504.5C 1280.57,528.399 1294.07,542.899 1317.5,548C 1323.91,548.322 1330.24,547.655 1336.5,546C 1357.18,538.162 1376.18,527.496 1393.5,514C 1399.98,509.023 1406.31,503.856 1412.5,498.5C 1419.92,411.806 1464.92,354.973 1547.5,328C 1594.25,315.802 1639.25,320.469 1682.5,342C 1709.6,356.698 1720.1,379.198 1714,409.5C 1707.11,431.058 1692.61,444.225 1670.5,449C 1663.5,449.667 1656.5,449.667 1649.5,449C 1634.55,444.795 1619.55,440.795 1604.5,437C 1585.8,432.889 1569.14,436.889 1554.5,449C 1530.51,470.621 1522.01,497.121 1529,528.5C 1540.68,552.263 1559.84,563.596 1586.5,562.5C 1650.87,557.008 1707.2,533.175 1755.5,491C 1762.37,484.469 1768.87,477.636 1775,470.5C 1790.11,421.059 1817.95,380.559 1858.5,349C 1883.48,330.68 1911.15,318.013 1941.5,311C 1954.69,308.767 1967.02,310.933 1978.5,317.5C 2009.64,306.55 2040.64,307.05 2071.5,319C 2100.48,331.654 2123.65,351.154 2141,377.5C 2149.64,393.409 2154.64,410.409 2156,428.5C 2156.99,442.913 2156.49,457.246 2154.5,471.5C 2229.23,479.899 2303.9,479.399 2378.5,470C 2415.1,463.9 2451.77,458.233 2488.5,453C 2511.6,450.574 2529.76,458.741 2543,477.5C 2558.42,508.313 2552.25,533.813 2524.5,554C 2519.61,556.277 2514.61,558.277 2509.5,560C 2401.34,582.902 2292.01,591.902 2181.5,587C 2155.45,586.231 2129.45,584.731 2103.5,582.5C 2092.01,592.49 2080.34,602.323 2068.5,612C 2029.18,641.812 1984.85,659.145 1935.5,664C 1896.62,667.424 1859.95,660.091 1825.5,642C 1809.18,632.023 1795.02,619.523 1783,604.5C 1747.16,622.839 1710.66,639.672 1673.5,655C 1642.64,667.205 1610.64,673.705 1577.5,674.5C 1533.63,675.384 1495.63,661.217 1463.5,632C 1457.99,626.318 1452.32,620.818 1446.5,615.5C 1391.6,656.18 1330.93,668.347 1264.5,652C 1250.77,647.305 1238.44,640.305 1227.5,631C 1214.49,619.502 1203.16,606.669 1193.5,592.5C 1155.04,630.725 1108.71,652.892 1054.5,659C 995.68,662.896 944.68,645.063 901.5,605.5C 860.507,637.685 816.174,664.851 768.5,687C 713.036,711.734 656.702,734.234 599.5,754.5C 605.221,786.6 608.887,818.933 610.5,851.5C 611.224,914.593 582.557,958.093 524.5,982C 484.552,997.503 445.552,995.503 407.5,976C 363.114,947.876 341.614,907.376 343,854.5C 344.935,815.335 358.602,781.002 384,751.5C 410.402,723.477 440.736,700.81 475,683.5C 476.487,662.451 477.32,641.451 477.5,620.5C 394.412,674.884 304.079,692.384 206.5,673C 147.252,657.378 99.7519,624.878 64,575.5C 15.406,502.883 -1.92738,423.216 12,336.5C 26.5226,247.769 67.0226,173.602 133.5,114C 224.06,39.568 325.393,20.2347 437.5,56C 467.777,66.9642 495.444,82.2975 520.5,102C 529.667,109.833 538.167,118.333 546,127.5C 560.113,151.533 559.446,175.199 544,198.5C 523.882,221.655 499.382,227.821 470.5,217C 466.5,214.667 462.5,212.333 458.5,210C 442.752,195.581 426.418,181.914 409.5,169C 387.463,156.123 363.63,149.956 338,150.5C 275.617,153.858 224.617,179.524 185,227.5C 135.827,289.036 115.827,359.036 125,437.5C 141.377,520.715 191.877,564.381 276.5,568.5C 364.142,564.116 431.309,525.116 478,451.5C 486.939,436.022 493.939,419.688 499,402.5C 504.557,380.607 510.89,358.94 518,337.5C 533.258,302.621 559.425,289.788 596.5,299C 621.519,309.833 634.519,329 635.5,356.5C 623.735,422.494 611.902,488.494 600,554.5C 595.372,581.32 592.539,608.32 591.5,635.5C 651.659,616.394 709.326,591.56 764.5,561C 790.453,545.726 814.119,527.392 835.5,506C 794.091,412.713 778.258,315.213 788,213.5C 792.498,168.009 805.832,125.342 828,85.5C 839.117,66.7921 852.951,50.2921 869.5,36C 890.562,19.9256 914.229,10.4256 940.5,7.5 Z M 946.5,127.5 C 958.798,127.562 967.964,132.895 974,143.5C 985.533,187.227 986.533,231.227 977,275.5C 966.078,322.295 947.412,365.628 921,405.5C 905.504,347.87 899.504,289.204 903,229.5C 904.592,197.068 913.258,166.735 929,138.5C 933.745,132.887 939.578,129.221 946.5,127.5 Z M 2014.5,420.5 C 2029.66,418.655 2040.16,424.655 2046,438.5C 2046.71,447.376 2044.04,455.043 2038,461.5C 2025.16,459.587 2014.83,453.587 2007,443.5C 2002.8,433.591 2005.3,425.924 2014.5,420.5 Z M 1897.5,474.5 C 1902.83,484.158 1908,494.158 1913,504.5C 1921.83,521.333 1934.67,534.167 1951.5,543C 1932.15,550.348 1912.48,551.348 1892.5,546C 1877.61,540.378 1872.11,529.878 1876,514.5C 1880.85,499.801 1888.01,486.468 1897.5,474.5 Z M 489.5,810.5 C 496.193,826.4 498.027,843.067 495,860.5C 489.626,876.183 479.459,880.35 464.5,873C 462.383,871.269 460.883,869.102 460,866.5C 459.249,861.428 459.582,856.428 461,851.5C 467.566,835.669 477.066,822.002 489.5,810.5 Z"/></g>
<g><path style="opacity:0.993" fill="#ed1b23" d="M 1238.5,104.5 C 1277.35,101.826 1304.52,118.159 1320,153.5C 1330.33,190.856 1319.83,220.69 1288.5,243C 1257.65,258.926 1228.32,256.592 1200.5,236C 1172.54,207.939 1167.37,176.106 1185,140.5C 1197.64,120.678 1215.47,108.678 1238.5,104.5 Z"/></g>
</svg>
