<svg width="219" height="103" viewBox="0 0 219 103" fill="none" xmlns="http://www.w3.org/2000/svg">
<g clip-path="url(#clip0_1_88)">
<path d="M63.7245 51.607C62.8749 38.8658 58.6266 31.7993 45.032 31.7993H40.7837C40.2527 31.7993 40.2527 32.5487 40.2527 32.8699V99.2525C40.2527 101.073 49.0679 101.073 50.2362 101.18V103H15.8249V101.287C16.9932 101.18 25.9146 101.18 25.9146 99.3596V33.2982C25.9146 31.371 22.516 31.7993 21.0291 31.7993C7.32832 31.7993 3.18623 38.8658 2.23036 51.714H0V29.2296H66.2735V51.607H63.7245Z" fill="#003A70"/>
<path d="M123.626 63.7057V33.1912C123.626 31.9063 121.608 31.9063 120.652 31.7993L113.536 31.1569V29.2296H147.31V31.1569C146.992 31.1569 137.858 31.0498 137.858 32.977L137.751 99.0384C137.751 100.323 139.663 100.323 140.619 100.43L147.416 101.073V102.893H113.642V101.287L120.758 100.751C121.608 100.644 123.732 100.644 123.732 99.3596V66.3824V63.7057H123.626ZM120.864 66.3824H93.1443V99.0384C93.1443 100.323 95.056 100.323 96.0119 100.43L103.234 101.073V102.893H69.46V101.18C69.7786 101.18 78.9124 101.287 78.9124 99.3596V32.977C78.9124 31.0498 69.7786 31.1569 69.46 31.1569V29.2296H103.234V30.9427L96.0119 31.5851C95.1622 31.5851 93.1443 31.5851 93.1443 32.977V63.7057H120.864V66.3824Z" fill="#003A70"/>
<path d="M195.103 31.5852C195.741 31.4782 196.378 31.3711 197.015 31.264C209.441 28.4802 219.106 19.5936 219.106 19.5936C210.716 16.3815 203.494 16.9168 197.759 18.5229C197.015 18.737 196.272 18.9511 195.528 19.2723C206.149 9.52911 207.105 0 207.105 0C197.759 4.06861 191.811 8.77963 187.881 13.3836C189.899 4.38981 184.483 1.07069 184.483 1.07069C184.483 1.07069 177.579 8.77963 176.517 17.0239C174.074 14.7755 170.251 13.7048 163.985 15.2037C163.985 15.2037 162.179 23.1268 167.702 27.0884C167.171 27.1954 166.64 27.3025 166.003 27.5166C161.967 28.5873 157.081 31.264 151.452 36.5104C151.452 36.5104 154.957 40.579 163.029 38.8659C163.454 38.7588 163.985 38.6518 164.409 38.5447C160.267 42.5062 156.125 48.2879 153.258 56.7464C153.258 56.7464 162.604 55.2474 171.313 45.0759C169.826 50.7505 168.764 58.0312 173.331 66.0613C181.084 56.9605 182.89 49.0374 183.314 42.9345C190.43 51.7141 204.45 50.3222 204.45 50.3222C203.494 39.6154 199.352 34.369 195.103 31.5852Z" fill="url(#paint0_linear_1_88)"/>
<path d="M173.331 65.526C169.189 57.71 170.251 50.6435 171.632 45.3971L172.163 43.4699L170.888 44.9688C163.772 53.3202 156.125 55.7828 153.789 56.3181C156.338 49.3587 159.949 43.5769 164.622 39.0801L165.897 37.9023L164.197 38.3306C163.772 38.4377 163.241 38.5447 162.817 38.6518C161.542 38.973 160.268 39.0801 159.099 39.0801C155.063 39.0801 152.833 37.474 151.983 36.7246C156.763 32.2277 161.542 29.3368 166.003 28.1591C166.534 28.052 167.065 27.8379 167.596 27.7308L168.658 27.5167L167.808 26.9813C163.135 23.6622 163.985 17.2381 164.197 15.8462C166.003 15.4179 167.596 15.2038 169.083 15.2038C171.95 15.2038 174.393 15.9532 176.093 17.5593L176.73 18.0946L176.836 17.2381C177.686 10.1715 183.102 3.31915 184.377 1.82018C185.439 2.67673 188.944 5.99586 187.244 13.4907L186.926 15.0967L187.988 13.8119C192.555 8.67258 198.715 4.28276 206.362 0.856567C205.831 3.31915 203.706 11.1352 195.104 19.0582L193.511 20.5572L195.528 19.8077C196.272 19.5936 197.015 19.2724 197.759 19.0582C200.733 18.2017 203.706 17.7734 206.68 17.7734C210.504 17.7734 214.327 18.4158 218.151 19.8077C215.92 21.7349 207.318 28.5873 196.803 30.9429C196.166 31.0499 195.529 31.157 194.891 31.2641L193.723 31.4782L194.679 32.1206C199.989 35.4397 202.963 41.3285 203.6 49.894C203.282 49.894 202.751 49.894 202.007 49.894C198.184 49.894 188.625 49.1445 183.315 42.6133L182.571 41.7568L182.465 42.8275C182.465 48.1809 181.084 56.104 173.331 65.526Z" fill="url(#paint1_linear_1_88)"/>
<path d="M203.601 17.3455C200.414 17.3455 186.076 21.307 186.076 21.307L182.996 8.24463L176.199 24.412C176.199 24.412 166.428 27.1958 162.18 29.3371L171.632 35.0118L162.498 52.571C167.384 49.7873 178.642 39.2945 178.642 39.2945C178.642 39.2945 187.032 47.753 192.874 48.9307L188.094 30.729L203.601 17.3455Z" fill="url(#paint2_linear_1_88)"/>
<path d="M202.644 17.4525C197.333 17.7737 185.438 20.9858 185.438 20.9858L182.995 8.24463L175.667 23.9837C175.667 23.9837 165.79 26.9816 161.647 29.0159L171.1 34.4764L162.391 52.6781C167.17 50.0014 177.897 38.7592 177.897 38.7592C177.897 38.7592 185.863 47.0035 191.704 48.5024L187.243 30.3008L202.644 17.4525Z" fill="url(#paint3_linear_1_88)"/>
</g>
<defs>
<linearGradient id="paint0_linear_1_88" x1="156.686" y1="60.2106" x2="212.145" y2="5.19702" gradientUnits="userSpaceOnUse">
<stop stop-color="#F5EEE0"/>
<stop offset="0.063" stop-color="#F3EAD7"/>
<stop offset="0.1695" stop-color="#EDDEC1"/>
<stop offset="0.2857" stop-color="#E5D0A3"/>
<stop offset="0.4911" stop-color="#C5AD6D"/>
<stop offset="0.6384" stop-color="#A78D49"/>
<stop offset="0.7849" stop-color="#917631"/>
<stop offset="0.9103" stop-color="#846924"/>
<stop offset="1" stop-color="#7F6421"/>
</linearGradient>
<linearGradient id="paint1_linear_1_88" x1="167.654" y1="53.3298" x2="195.726" y2="19.0317" gradientUnits="userSpaceOnUse">
<stop stop-color="#D9B975"/>
<stop offset="0.1589" stop-color="#B79854"/>
<stop offset="0.2932" stop-color="#A58742"/>
<stop offset="0.3839" stop-color="#9F813C"/>
<stop offset="0.7009" stop-color="#E5D0A3"/>
<stop offset="0.739" stop-color="#DDC697"/>
<stop offset="0.8062" stop-color="#CBB27C"/>
<stop offset="0.8945" stop-color="#B29555"/>
<stop offset="1" stop-color="#937329"/>
</linearGradient>
<linearGradient id="paint2_linear_1_88" x1="166.995" y1="30.4194" x2="208.697" y2="30.4188" gradientUnits="userSpaceOnUse">
<stop offset="0.1074" stop-color="white"/>
<stop offset="0.1231" stop-color="#FCF6E0"/>
<stop offset="0.1478" stop-color="#F9EDBC"/>
<stop offset="0.1716" stop-color="#F7E7A0"/>
<stop offset="0.1937" stop-color="#F6E28C"/>
<stop offset="0.2137" stop-color="#F5E080"/>
<stop offset="0.2296" stop-color="#F4DF7B"/>
<stop offset="0.2446" stop-color="#F4DE78"/>
<stop offset="0.261" stop-color="#F1D96C"/>
<stop offset="0.2782" stop-color="#EDD257"/>
<stop offset="0.2958" stop-color="#E8C838"/>
<stop offset="0.3037" stop-color="#E4C328"/>
<stop offset="0.3051" stop-color="#E5C329"/>
<stop offset="0.3431" stop-color="#E7C84A"/>
<stop offset="0.3749" stop-color="#E8CB5D"/>
<stop offset="0.3963" stop-color="#E8CC64"/>
<stop offset="0.4082" stop-color="#E9CE6E"/>
<stop offset="0.4292" stop-color="#EBD485"/>
<stop offset="0.4568" stop-color="#EFDEA9"/>
<stop offset="0.4889" stop-color="#F4ECDB"/>
<stop offset="0.4969" stop-color="#F5EDDD"/>
<stop offset="0.6057" stop-color="#FBF8F3"/>
<stop offset="0.6741" stop-color="white"/>
</linearGradient>
<linearGradient id="paint3_linear_1_88" x1="168.775" y1="49.8442" x2="200.371" y2="7.69644" gradientUnits="userSpaceOnUse">
<stop offset="0.1429" stop-color="white"/>
<stop offset="0.2094" stop-color="#FFFEFC"/>
<stop offset="0.2388" stop-color="#FEFCF4"/>
<stop offset="0.2609" stop-color="#FDF8E9"/>
<stop offset="0.2793" stop-color="#FBF4DA"/>
<stop offset="0.2954" stop-color="#FAF0C8"/>
<stop offset="0.3099" stop-color="#F8EAB1"/>
<stop offset="0.323" stop-color="#F6E597"/>
<stop offset="0.3259" stop-color="#F6E390"/>
<stop offset="0.4152" stop-color="#E9CB51"/>
<stop offset="0.4363" stop-color="#E8CC66"/>
<stop offset="0.4777" stop-color="#E7CE84"/>
<stop offset="0.5402" stop-color="#EFDFB6"/>
<stop offset="0.5893" stop-color="#F4ECDB"/>
<stop offset="0.6079" stop-color="#F8F2E7"/>
<stop offset="0.636" stop-color="#FBF8F3"/>
<stop offset="0.6757" stop-color="#FEFDFB"/>
<stop offset="0.7857" stop-color="white"/>
</linearGradient>
<clipPath id="clip0_1_88">
<rect width="219" height="103" fill="white"/>
</clipPath>
</defs>
</svg>
